<?xml version="1.0" standalone="no"?>
<!DOCTYPE svg PUBLIC "-//W3C//DTD SVG 20010904//EN"
 "http://www.w3.org/TR/2001/REC-SVG-20010904/DTD/svg10.dtd">
<svg version="1.0" xmlns="http://www.w3.org/2000/svg"
 width="299.000000pt" height="299.000000pt" viewBox="0 0 299.000000 299.000000"
 preserveAspectRatio="xMidYMid meet">
<metadata>
Created by potrace 1.11, written by Peter Selinger 2001-2013
</metadata>
<g transform="translate(0.000000,299.000000) scale(0.100000,-0.100000)"
fill="#000000" stroke="none">
<path d="M1240 2960 c-146 -26 -255 -62 -395 -130 -155 -75 -276 -161 -400
-285 -124 -124 -209 -244 -285 -400 -73 -149 -105 -246 -132 -400 -28 -166
-22 -429 15 -585 68 -290 208 -534 429 -745 l103 -99 3 47 3 48 -99 103 c-200
208 -321 441 -378 731 -25 122 -25 375 0 498 57 292 188 539 396 747 204 204
437 330 723 392 135 29 397 31 531 4 322 -63 614 -232 815 -471 156 -185 249
-366 307 -599 35 -140 44 -396 20 -547 -20 -121 -79 -306 -129 -406 -125 -247
-348 -478 -592 -613 -173 -96 -390 -158 -582 -167 l-123 -6 0 -40 0 -40 113 7
c205 12 384 59 562 146 434 212 729 602 822 1085 23 122 23 385 0 512 -56 305
-197 574 -417 793 -212 213 -463 350 -760 415 -121 27 -419 29 -550 5z"/>
<path d="M1395 2704 c-529 -57 -940 -408 -1072 -913 -31 -119 -42 -336 -24
-461 31 -209 131 -440 258 -593 l23 -29 0 175 c0 164 -2 178 -25 230 -55 125
-70 208 -69 392 0 155 3 178 28 260 55 183 124 302 256 438 257 269 619 372
980 281 379 -96 668 -403 751 -799 7 -33 13 -121 13 -195 -1 -213 -51 -379
-166 -551 -180 -269 -470 -439 -780 -456 l-98 -6 0 -93 0 -94 74 0 c279 0 594
137 806 350 437 439 476 1128 92 1612 -176 221 -428 374 -713 432 -79 16 -265
27 -334 20z"/>
<path d="M1360 2216 c-231 -49 -404 -183 -505 -391 -75 -155 -75 -152 -75
-939 l0 -696 60 -30 c120 -61 236 -99 407 -136 l22 -4 3 782 c4 869 0 824 72
905 51 58 104 82 180 83 76 0 132 -26 189 -90 71 -79 87 -181 43 -277 -46 -97
-121 -149 -244 -168 l-42 -7 2 -226 3 -227 70 3 c285 12 536 205 632 486 26
74 28 93 28 226 0 126 -3 154 -24 215 -78 231 -254 403 -486 475 -90 27 -245
35 -335 16z"/>
</g>
</svg>
